<svg xmlns="http://www.w3.org/2000/svg" width="34" height="28" viewBox="0 0 34 28">
  <path id="Icon_awesome-twitter" data-name="Icon awesome-twitter" d="M30.505,10.359c.022.306.022.613.022.919,0,9.341-7.011,20.1-19.826,20.1A19.5,19.5,0,0,1,0,28.209a14.219,14.219,0,0,0,1.683.087,13.834,13.834,0,0,0,8.651-3.019,6.993,6.993,0,0,1-6.515-4.9,8.669,8.669,0,0,0,1.316.109,7.274,7.274,0,0,0,1.834-.241,7.043,7.043,0,0,1-5.588-6.934v-.087a6.945,6.945,0,0,0,3.15.9,7.141,7.141,0,0,1-2.157-9.45,19.718,19.718,0,0,0,14.368,7.394,8.083,8.083,0,0,1-.173-1.619,7.014,7.014,0,0,1,6.968-7.066,6.907,6.907,0,0,1,5.091,2.231,13.6,13.6,0,0,0,4.423-1.706A7.03,7.03,0,0,1,29.987,7.8,13.818,13.818,0,0,0,34,6.706a15.1,15.1,0,0,1-3.495,3.653Z" transform="translate(0 -3.381)" fill="#fff" opacity="0.7"/>
</svg>
