<svg xmlns="http://www.w3.org/2000/svg" width="10.875" height="8.833" viewBox="0 0 10.875 8.833">
  <path id="Icon_awesome-twitter" data-name="Icon awesome-twitter" d="M9.757,5.582c.007.1.007.193.007.29a6.3,6.3,0,0,1-6.342,6.342,6.3,6.3,0,0,1-3.423-1,4.61,4.61,0,0,0,.538.028,4.464,4.464,0,0,0,2.767-.952A2.233,2.233,0,0,1,1.221,8.742a2.811,2.811,0,0,0,.421.034A2.357,2.357,0,0,0,2.229,8.7,2.229,2.229,0,0,1,.442,6.514V6.486a2.245,2.245,0,0,0,1.007.283,2.232,2.232,0,0,1-.69-2.981,6.335,6.335,0,0,0,4.6,2.332A2.516,2.516,0,0,1,5.3,5.61,2.231,2.231,0,0,1,9.157,4.085a4.388,4.388,0,0,0,1.415-.538,2.223,2.223,0,0,1-.98,1.228,4.468,4.468,0,0,0,1.283-.345A4.791,4.791,0,0,1,9.757,5.582Z" transform="translate(0 -3.381)" fill="#256f44"/>
</svg>
